<svg width="390" height="423" viewBox="0 0 390 423" fill="none" xmlns="http://www.w3.org/2000/svg">
<g opacity="0.3">
<g clip-path="url(#clip0_131_69)">
<path d="M26.2708 272.281C14.4488 278.264 1.11833 280.607 -12.0351 279.013C-25.1884 277.42 -37.5739 271.962 -47.6252 263.329C-57.6766 254.697 -64.9423 243.277 -68.5037 230.515C-72.0651 217.753 -71.7622 204.222 -67.6332 191.632C-63.5042 179.042 -55.7347 167.96 -45.3071 159.786C-34.8795 151.612 -22.2621 146.713 -9.05062 145.71C4.1609 144.707 17.3732 147.644 28.9155 154.15C40.4579 160.655 49.8118 170.438 55.7945 182.26L86.0435 242.032L26.2708 272.281Z" fill="#CC9F5E" fill-opacity="0.7"/>
</g>
<g clip-path="url(#clip1_131_69)">
<path d="M26.2683 272.277C-6.74329 288.983 -19.9615 329.287 -3.25545 362.298C13.4506 395.31 53.7547 408.528 86.7663 391.822C119.778 375.116 132.996 334.812 116.29 301.8C99.584 268.789 59.2799 255.57 26.2683 272.277Z" fill="#CC9F5E" fill-opacity="0.7"/>
</g>
<g clip-path="url(#clip2_131_69)">
<path d="M85.3137 92.2403C97.1356 86.2576 110.466 83.9149 123.62 85.5084C136.773 87.1019 149.158 92.56 159.21 101.193C169.261 109.825 176.527 121.244 180.088 134.006C183.65 146.768 183.347 160.3 179.218 172.889C175.089 185.479 167.319 196.562 156.892 204.736C146.464 212.91 133.847 217.808 120.635 218.812C107.424 219.815 94.2113 216.878 82.6689 210.372C71.1266 203.866 61.7726 194.084 55.79 182.262L25.541 122.489L85.3137 92.2403Z" fill="#CC9F5E" fill-opacity="0.7"/>
</g>
<g clip-path="url(#clip3_131_69)">
<path d="M264.628 1.49568C248.776 9.51821 236.759 23.5096 231.222 40.392C225.685 57.2743 227.082 75.6647 235.105 91.5174C243.127 107.37 257.118 119.387 274.001 124.923C290.883 130.46 309.274 129.064 325.126 121.041L264.628 1.49568Z" fill="#CC9F5E" fill-opacity="0.7"/>
</g>
<g clip-path="url(#clip4_131_69)">
<path d="M235.832 241.305C241.814 253.127 244.157 266.457 242.564 279.611C240.97 292.764 235.512 305.149 226.879 315.201C218.247 325.252 206.828 332.518 194.066 336.079C181.304 339.641 167.772 339.338 155.182 335.209C142.593 331.08 131.51 323.31 123.336 312.883C115.162 302.455 110.264 289.838 109.26 276.626C108.257 263.415 111.194 250.202 117.7 238.66C124.206 227.118 133.988 217.764 145.81 211.781L205.583 181.532L235.832 241.305Z" fill="#CC9F5E" fill-opacity="0.7"/>
</g>
<g clip-path="url(#clip5_131_69)">
<path d="M235.827 241.307C227.804 225.454 226.408 207.064 231.944 190.182C237.481 173.299 249.498 159.308 265.35 151.285L325.123 121.036L385.621 240.582L325.848 270.831C309.996 278.853 291.605 280.25 274.723 274.713C257.841 269.176 243.849 257.16 235.827 241.307Z" fill="#CC9F5E" fill-opacity="0.7"/>
</g>
<g clip-path="url(#clip6_131_69)">
<path d="M474.913 120.313C480.895 132.135 483.238 145.466 481.645 158.619C480.051 171.773 474.593 184.158 465.96 194.209C457.328 204.261 445.909 211.527 433.147 215.088C420.385 218.649 406.853 218.346 394.264 214.217C381.674 210.088 370.591 202.319 362.417 191.891C354.243 181.464 349.345 168.846 348.341 155.635C347.338 142.423 350.275 129.211 356.781 117.669C363.287 106.126 373.069 96.7724 384.891 90.7897L444.664 60.5407L474.913 120.313Z" fill="#CC9F5E" fill-opacity="0.7"/>
</g>
</g>
<defs>
<clipPath id="clip0_131_69">
<rect width="133.982" height="133.982" fill="white" transform="translate(-94 182.985) rotate(-26.8425)"/>
</clipPath>
<clipPath id="clip1_131_69">
<rect width="133.982" height="133.982" fill="white" transform="translate(146.539 361.573) rotate(153.158)"/>
</clipPath>
<clipPath id="clip2_131_69">
<rect width="133.982" height="133.982" fill="white" transform="translate(205.584 181.537) rotate(153.158)"/>
</clipPath>
<clipPath id="clip3_131_69">
<rect width="133.982" height="133.982" fill="white" transform="translate(205.581 181.539) rotate(-116.842)"/>
</clipPath>
<clipPath id="clip4_131_69">
<rect width="133.982" height="133.982" fill="white" transform="translate(146.535 361.576) rotate(-116.842)"/>
</clipPath>
<clipPath id="clip5_131_69">
<rect width="133.982" height="133.982" fill="white" transform="translate(325.123 121.036) rotate(63.1575)"/>
</clipPath>
<clipPath id="clip6_131_69">
<rect width="133.982" height="133.982" fill="white" transform="translate(385.616 240.584) rotate(-116.842)"/>
</clipPath>
</defs>
</svg>
