<svg width="31" height="31" viewBox="0 0 31 31" fill="none" xmlns="http://www.w3.org/2000/svg">
<rect width="31" height="31" rx="15.5" fill="#AF803A"/>
<path d="M19.2497 18.4687C19.1497 18.4687 19.0559 18.4375 18.9684 18.375C18.7622 18.2187 18.7184 17.925 18.8747 17.7187C19.8559 16.4125 19.8559 14.5875 18.8747 13.2812C18.7184 13.075 18.7622 12.7812 18.9684 12.625C19.1747 12.4687 19.4684 12.5125 19.6247 12.7187C20.8497 14.3562 20.8497 16.6437 19.6247 18.2812C19.5309 18.4062 19.3934 18.4687 19.2497 18.4687Z" fill="white"/>
<path d="M20.3937 20.0312C20.2937 20.0312 20.2 20 20.1125 19.9375C19.9062 19.7812 19.8625 19.4875 20.0187 19.2812C21.6875 17.0562 21.6875 13.9437 20.0187 11.7187C19.8625 11.5125 19.9062 11.2187 20.1125 11.0625C20.3187 10.9062 20.6125 10.95 20.7687 11.1562C22.6875 13.7125 22.6875 17.2875 20.7687 19.8437C20.6812 19.9687 20.5375 20.0312 20.3937 20.0312Z" fill="white"/>
<path d="M16.7625 10.3625C16.0625 9.97501 15.1688 10.075 14.2563 10.6438L12.4313 11.7875C12.3063 11.8625 12.1625 11.9063 12.0187 11.9063H11.4375H11.125C9.6125 11.9063 8.78125 12.7375 8.78125 14.25V16.75C8.78125 18.2625 9.6125 19.0938 11.125 19.0938H11.4375H12.0187C12.1625 19.0938 12.3063 19.1375 12.4313 19.2125L14.2563 20.3563C14.8063 20.7 15.3438 20.8688 15.8438 20.8688C16.1688 20.8688 16.4813 20.7938 16.7625 20.6375C17.4563 20.25 17.8438 19.4438 17.8438 18.3688V12.6313C17.8438 11.5563 17.4563 10.75 16.7625 10.3625Z" fill="white"/>
</svg>
