<svg width="47" height="58" viewBox="0 0 47 58" fill="none" xmlns="http://www.w3.org/2000/svg">
<path d="M34.593 0C34.7272 0 34.8613 0 35.0031 0C35.3322 4.0656 33.7804 7.10341 31.8944 9.3033C30.0439 11.488 27.5098 13.6069 23.4113 13.2854C23.1379 9.27798 24.6923 6.46547 26.5757 4.27066C28.3225 2.2252 31.5248 0.405041 34.593 0Z" fill="black"/>
<path d="M47 42.3167C47 42.3572 47 42.3926 47 42.4306C45.8482 45.919 44.2052 48.9087 42.2003 51.6833C40.37 54.2021 38.1271 57.5918 34.1222 57.5918C30.6616 57.5918 28.363 55.3666 24.8164 55.3058C21.0647 55.2451 19.0015 57.1665 15.5713 57.65C15.1789 57.65 14.7865 57.65 14.4018 57.65C11.8829 57.2855 9.8501 55.2907 8.36917 53.4933C4.00232 48.1822 0.627814 41.3218 0 32.5425C0 31.6818 0 30.8236 0 29.9629C0.265808 23.6797 3.31881 18.5711 7.37682 16.0953C9.51847 14.7789 12.4626 13.6574 15.7409 14.1587C17.1459 14.3764 18.5813 14.8574 19.8394 15.3333C21.0318 15.7915 22.5228 16.6041 23.9354 16.5611C24.8923 16.5332 25.8442 16.0345 26.8087 15.6827C29.6338 14.6625 32.4033 13.4929 36.0538 14.0422C40.4409 14.7055 43.5546 16.6548 45.4786 19.6622C41.7674 22.0241 38.8334 25.5834 39.3346 31.6615C39.7801 37.1828 42.9901 40.413 47 42.3167Z" fill="black"/>
</svg>
